# xmcd
#
# Track frame offsets: 
#        150
#        17933
#        33207
#        46001
#        59674
#        78642
#        91003
#        103580
#        119707
#        135621
#        150767
#        165870
#        181474
#
# Disc length: 2627 seconds
#
# Revision: 0
# Processed by: cddbd v1.5.2PL0 Copyright (c) Steve Scherf et al.
# Submitted via: ExactAudioCopy v0.99pb5
#
DISCID=990a410d
DTITLE=Quique González - Daiquiri Blues
DYEAR=2009
DGENRE=Rock
TTITLE0=Daiquiri Blues
TTITLE1=Cuando Estés En Vena
TTITLE2=Un Arma Precisa
TTITLE3=Hasta Que Todo Te Encaje
TTITLE4=La Luna Debajo Del Brazo
TTITLE5=Deslumbrado
TTITLE6=Lo Voy A Derribar
TTITLE7=Su Día Libre
TTITLE8=Riesgo Y Altura
TTITLE9=Nadie Podrá Con Nosotros
TTITLE10=Restos De Stock
TTITLE11=Anoche Estuvo Aquí
TTITLE12=Algo Me Aleja De Ti
EXTD=
EXTT0=
EXTT1=
EXTT2=
EXTT3=
EXTT4=
EXTT5=
EXTT6=
EXTT7=
EXTT8=
EXTT9=
EXTT10=
EXTT11=
EXTT12=
PLAYORDER=
